<svg width="24" height="24" viewBox="0 0 24 24" fill="none" xmlns="http://www.w3.org/2000/svg">
<path fill-rule="evenodd" clip-rule="evenodd" d="M3.31613 3.2704C3.71908 2.89271 4.35191 2.91318 4.72961 3.31613L11.4987 10.5379L18.2705 3.31599C18.6483 2.91312 19.2811 2.89276 19.684 3.27053C20.0869 3.6483 20.1072 4.28114 19.7295 4.68401L12.8701 11.9993L19.7295 19.3161C20.1073 19.719 20.0869 20.3518 19.6839 20.7295C19.281 21.1073 18.6482 21.0869 18.2705 20.6839L11.5 13.4621L4.72954 20.6839C4.35181 21.0869 3.71897 21.1073 3.31606 20.7295C2.91315 20.3518 2.89274 19.719 3.27047 19.3161L10.1286 12.0007L3.2704 4.68387C2.89271 4.28093 2.91318 3.64809 3.31613 3.2704Z" fill="#0C263C"/>
</svg>
