<svg width="55" height="55" fill="none" xmlns="http://www.w3.org/2000/svg"><path d="M44.429 38.857a.661.661 0 01-.643.643H14.214a.661.661 0 01-.643-.643V23.43c.422.482.884.924 1.387 1.326 2.872 2.21 5.765 4.46 8.558 6.79 1.506 1.265 3.375 2.812 5.464 2.812h.04c2.09 0 3.958-1.547 5.464-2.812 2.793-2.33 5.686-4.58 8.558-6.79.503-.402.965-.844 1.387-1.326v15.428zm0-21.114c0 1.708-1.648 3.938-2.954 4.962a1247.75 1247.75 0 00-8.055 6.369c-1.065.864-2.994 2.712-4.4 2.712h-.04c-1.406 0-3.335-1.848-4.4-2.712a1247.75 1247.75 0 00-8.055-6.369C14.717 21.28 13.57 19.29 13.57 17c0-.341.302-.643.643-.643h29.572c.763 0 .643.884.643 1.386zM47 17a3.224 3.224 0 00-3.214-3.214H14.214A3.224 3.224 0 0011 17v21.857a3.224 3.224 0 003.214 3.215h29.572A3.224 3.224 0 0047 38.856V17z" fill="#fff"/></svg>