<svg width="20" height="20" viewBox="0 0 20 20" fill="none" xmlns="http://www.w3.org/2000/svg">
<path d="M8.14287 14.4554C8.07144 14.4554 7.99108 14.4196 7.93751 14.3661L7.49108 13.9196C7.43751 13.8661 7.40179 13.7857 7.40179 13.7143C7.40179 13.6429 7.43751 13.5625 7.49108 13.5089L11 10L7.49108 6.49107C7.43751 6.4375 7.40179 6.35714 7.40179 6.28571C7.40179 6.20536 7.43751 6.13393 7.49108 6.08036L7.93751 5.63393C7.99108 5.58036 8.07144 5.54464 8.14287 5.54464C8.21429 5.54464 8.29465 5.58036 8.34822 5.63393L12.5089 9.79464C12.5625 9.84822 12.5982 9.92857 12.5982 10C12.5982 10.0714 12.5625 10.1518 12.5089 10.2054L8.34822 14.3661C8.29465 14.4196 8.21429 14.4554 8.14287 14.4554Z" fill="white"/>
</svg>
