<svg width="20" height="20" viewBox="0 0 20 20" fill="none" xmlns="http://www.w3.org/2000/svg">
<path d="M11.8571 5.54464C11.9286 5.54464 12.0089 5.58036 12.0625 5.63393L12.5089 6.08036C12.5625 6.13393 12.5982 6.21428 12.5982 6.28571C12.5982 6.35714 12.5625 6.4375 12.5089 6.49107L8.99999 10L12.5089 13.5089C12.5625 13.5625 12.5982 13.6429 12.5982 13.7143C12.5982 13.7946 12.5625 13.8661 12.5089 13.9196L12.0625 14.3661C12.0089 14.4196 11.9286 14.4554 11.8571 14.4554C11.7857 14.4554 11.7053 14.4196 11.6518 14.3661L7.49106 10.2054C7.43749 10.1518 7.40178 10.0714 7.40178 10C7.40178 9.92857 7.43749 9.84821 7.49106 9.79464L11.6518 5.63393C11.7053 5.58036 11.7857 5.54464 11.8571 5.54464Z" fill="white"/>
</svg>
