<svg width="20" height="20" viewBox="0 0 20 20" fill="none" xmlns="http://www.w3.org/2000/svg">
<path d="M5.54467 8.14286C5.54467 8.07143 5.58038 7.99108 5.63395 7.9375L6.08038 7.49108C6.13395 7.4375 6.21431 7.40179 6.28574 7.40179C6.35717 7.40179 6.43753 7.4375 6.4911 7.49108L10 11L13.509 7.49108C13.5625 7.4375 13.6429 7.40179 13.7143 7.40179C13.7947 7.40179 13.8661 7.4375 13.9197 7.49108L14.3661 7.9375C14.4197 7.99108 14.4554 8.07143 14.4554 8.14286C14.4554 8.21429 14.4197 8.29465 14.3661 8.34822L10.2054 12.5089C10.1518 12.5625 10.0715 12.5982 10 12.5982C9.9286 12.5982 9.84824 12.5625 9.79467 12.5089L5.63395 8.34822C5.58038 8.29465 5.54467 8.21429 5.54467 8.14286Z" fill="white"/>
</svg>
