<svg style="display: none;">

    <symbol viewBox="0 0 24 24" id="close">
        <path fill-rule="evenodd" clip-rule="evenodd" d="M3.31613 3.2704C3.71908 2.89271 4.35191 2.91318 4.72961 3.31613L11.4987 10.5379L18.2705 3.31599C18.6483 2.91312 19.2811 2.89276 19.684 3.27053C20.0869 3.6483 20.1072 4.28114 19.7295 4.68401L12.8701 11.9993L19.7295 19.3161C20.1073 19.719 20.0869 20.3518 19.6839 20.7295C19.281 21.1073 18.6482 21.0869 18.2705 20.6839L11.5 13.4621L4.72954 20.6839C4.35181 21.0869 3.71897 21.1073 3.31606 20.7295C2.91315 20.3518 2.89274 19.719 3.27047 19.3161L10.1286 12.0007L3.2704 4.68387C2.89271 4.28093 2.91318 3.64809 3.31613 3.2704Z"/>
    </symbol>
    
    <symbol viewBox="0 0 20 20" id="arrow--down">
        <path d="M5.54467 8.14286C5.54467 8.07143 5.58038 7.99108 5.63395 7.9375L6.08038 7.49108C6.13395 7.4375 6.21431 7.40179 6.28574 7.40179C6.35717 7.40179 6.43753 7.4375 6.4911 7.49108L10 11L13.509 7.49108C13.5625 7.4375 13.6429 7.40179 13.7143 7.40179C13.7947 7.40179 13.8661 7.4375 13.9197 7.49108L14.3661 7.9375C14.4197 7.99108 14.4554 8.07143 14.4554 8.14286C14.4554 8.21429 14.4197 8.29465 14.3661 8.34822L10.2054 12.5089C10.1518 12.5625 10.0715 12.5982 10 12.5982C9.9286 12.5982 9.84824 12.5625 9.79467 12.5089L5.63395 8.34822C5.58038 8.29465 5.54467 8.21429 5.54467 8.14286Z"/>
    </symbol>

    <symbol viewBox="0 0 20 20" id="arrow--left">
        <path d="M11.8571 5.54464C11.9286 5.54464 12.0089 5.58036 12.0625 5.63393L12.5089 6.08036C12.5625 6.13393 12.5982 6.21428 12.5982 6.28571C12.5982 6.35714 12.5625 6.4375 12.5089 6.49107L8.99999 10L12.5089 13.5089C12.5625 13.5625 12.5982 13.6429 12.5982 13.7143C12.5982 13.7946 12.5625 13.8661 12.5089 13.9196L12.0625 14.3661C12.0089 14.4196 11.9286 14.4554 11.8571 14.4554C11.7857 14.4554 11.7053 14.4196 11.6518 14.3661L7.49106 10.2054C7.43749 10.1518 7.40178 10.0714 7.40178 10C7.40178 9.92857 7.43749 9.84821 7.49106 9.79464L11.6518 5.63393C11.7053 5.58036 11.7857 5.54464 11.8571 5.54464Z"/>
    </symbol>

    <symbol viewBox="0 0 20 20" id="arrow--right">
        <path d="M8.14287 14.4554C8.07144 14.4554 7.99108 14.4196 7.93751 14.3661L7.49108 13.9196C7.43751 13.8661 7.40179 13.7857 7.40179 13.7143C7.40179 13.6429 7.43751 13.5625 7.49108 13.5089L11 10L7.49108 6.49107C7.43751 6.4375 7.40179 6.35714 7.40179 6.28571C7.40179 6.20536 7.43751 6.13393 7.49108 6.08036L7.93751 5.63393C7.99108 5.58036 8.07144 5.54464 8.14287 5.54464C8.21429 5.54464 8.29465 5.58036 8.34822 5.63393L12.5089 9.79464C12.5625 9.84822 12.5982 9.92857 12.5982 10C12.5982 10.0714 12.5625 10.1518 12.5089 10.2054L8.34822 14.3661C8.29465 14.4196 8.21429 14.4554 8.14287 14.4554Z"/>
    </symbol>

    <symbol viewBox="0 0 20 20" id="arrow--up">
        <path d="M14.4553 11.8571C14.4553 11.9286 14.4196 12.0089 14.366 12.0625L13.9196 12.5089C13.866 12.5625 13.7857 12.5982 13.7143 12.5982C13.6428 12.5982 13.5625 12.5625 13.5089 12.5089L9.99997 9L6.49105 12.5089C6.43747 12.5625 6.35712 12.5982 6.28569 12.5982C6.20533 12.5982 6.1339 12.5625 6.08033 12.5089L5.6339 12.0625C5.58033 12.0089 5.54462 11.9286 5.54462 11.8571C5.54462 11.7857 5.58033 11.7054 5.6339 11.6518L9.79462 7.49107C9.84819 7.4375 9.92855 7.40178 9.99997 7.40178C10.0714 7.40178 10.1518 7.4375 10.2053 7.49107L14.366 11.6518C14.4196 11.7054 14.4553 11.7857 14.4553 11.8571Z"/>
    </symbol>

    <symbol viewBox="0 0 20 20" id="mail">
        <path d="M16.4286 14.8491C16.4286 14.9914 16.303 15.117 16.1607 15.117H3.83929C3.69699 15.117 3.57143 14.9914 3.57143 14.8491V8.42057C3.74721 8.62146 3.93973 8.80561 4.149 8.97302C5.34598 9.89378 6.55134 10.8313 7.71484 11.8023C8.34263 12.3296 9.12109 12.9741 9.99163 12.9741H10H10.0084C10.8789 12.9741 11.6574 12.3296 12.2852 11.8023C13.4487 10.8313 14.654 9.89378 15.851 8.97302C16.0603 8.80561 16.2528 8.62146 16.4286 8.42057V14.8491ZM16.4286 6.05171C16.4286 6.7632 15.7422 7.69233 15.1981 8.11923C14.0765 8.99813 12.9548 9.88541 11.8415 10.7727C11.3979 11.1326 10.5943 11.9027 10.0084 11.9027H10H9.99163C9.40569 11.9027 8.60212 11.1326 8.15848 10.7727C7.0452 9.88541 5.92355 8.99813 4.8019 8.11923C4.04855 7.52492 3.57143 6.69624 3.57143 5.742C3.57143 5.5997 3.69699 5.47414 3.83929 5.47414H16.1607C16.4788 5.47414 16.4286 5.84244 16.4286 6.05171ZM17.5 5.742C17.5 5.00539 16.8973 4.40271 16.1607 4.40271H3.83929C3.10268 4.40271 2.5 5.00539 2.5 5.742V14.8491C2.5 15.5857 3.10268 16.1884 3.83929 16.1884H16.1607C16.8973 16.1884 17.5 15.5857 17.5 14.8491V5.742Z"/>
    </symbol>

    <symbol viewBox="0 0 20 20" id="logo-yandex">
        <path fill-rule="evenodd" clip-rule="evenodd" d="M3.2799 9.9307C3.2799 8.94664 3.36309 8.32213 5.41817 6.80087C7.11955 5.54138 12.5731 1.23743 12.5731 1.23743V8.42209H16.7203V18.7627H4.57524C3.86282 18.7627 3.27969 18.1844 3.27969 17.4778L3.2799 9.93076V9.9307Z" fill="#3E9CDC"/>
        <path fill-rule="evenodd" clip-rule="evenodd" d="M12.5731 8.422V12.585L4.95218 17.7335L14.5874 14.6246V8.422H12.5731Z" fill="black" fill-opacity="0.2"/>
        <path fill-rule="evenodd" clip-rule="evenodd" d="M9.09046 8.20685C9.53615 7.68023 10.187 7.49436 10.5444 7.79173C10.9018 8.08915 10.8304 8.75719 10.3847 9.2838C9.93931 9.81035 9.28817 9.99602 8.93078 9.69859C8.5734 9.40123 8.64503 8.73333 9.09046 8.20678V8.20685Z" fill="#231F20"/>
    </symbol>

    <symbol viewBox="0 0 20 20" id="logo-webmoney">
        <path d="M8.84077 0C10.251 0 11.5928 0.323103 12.7969 0.901077C12.9857 0.986269 13.1758 1.08823 13.364 1.19028L12.5384 1.92159L11.3007 0.646297L9.16802 2.51651L7.91214 1.17307L3.99048 4.65889L6.50126 7.39646L5.52108 8.24641L7.99822 10.984L7.01795 11.8336L10.5613 15.7274L12.6585 13.823L14.4826 15.8639C14.1211 16.136 13.7255 16.4086 13.296 16.6462C11.9886 17.3773 10.4747 17.8016 8.85814 17.8016C3.88691 17.8016 -0.154454 13.8066 -0.154454 8.89314C-0.172009 4.01286 3.87007 0 8.84077 0ZM7.18931 8.34864L9.33937 6.44418L11.2662 8.56952L9.11567 10.4738L7.18931 8.34864ZM8.72053 12.0214L10.8531 10.1001L12.7969 12.2253L10.6467 14.1298L8.72053 12.0214ZM5.65942 4.72713L7.80886 2.82267L9.73522 4.948L7.58507 6.85238L5.65942 4.72713ZM9.59742 3.70661L11.1971 2.27842L12.6423 3.85978L11.0426 5.30485L9.59742 3.70661ZM12.4529 10.2528L14.0521 8.82456L15.4972 10.4224L13.8974 11.8516L12.4529 10.2528ZM13.8631 13.4668L15.4629 12.0382L16.9068 13.6195L15.3076 15.0644L13.8631 13.4668ZM14.5168 6.12107L15.5831 5.16879L16.5459 6.22339L15.4799 7.17531L14.5168 6.12107ZM13.1408 2.97548L14.2071 2.00651L15.1707 3.07753L14.1036 4.02972L13.1408 2.97548ZM15.8755 9.26693L16.9417 8.31474L17.922 9.36898L16.8389 10.3209L15.8755 9.26693ZM11.0768 6.90341L12.6766 5.47513L14.1211 7.05614L12.522 8.48469L11.0768 6.90341Z" fill="#3E9CDC"/>
    </symbol>

    <symbol viewBox="0 0 20 20" id="logo-vk">
        <path d="M14.8458 12.2863C14.8458 12.9366 14.7228 13.5079 14.4767 14.0001C14.2306 14.4923 13.8995 14.8995 13.4835 15.2218C12.9913 15.6085 12.4493 15.8839 11.8575 16.048C11.2716 16.212 10.5245 16.2941 9.61633 16.2941H4.37805V3.20715H9.0011C9.96204 3.20715 10.6886 3.24524 11.1808 3.32141C11.6788 3.39172 12.1447 3.54407 12.5782 3.77844C13.047 4.0304 13.3956 4.36731 13.6241 4.78918C13.8585 5.21106 13.9757 5.69739 13.9757 6.24817C13.9757 6.88684 13.8146 7.4552 13.4923 7.95325C13.1759 8.45129 12.7365 8.8175 12.174 9.05188V9.12219C12.9825 9.29211 13.63 9.64075 14.1163 10.1681C14.6027 10.6896 14.8458 11.3956 14.8458 12.2863ZM10.6359 6.90735C10.6359 6.69641 10.5802 6.47961 10.4689 6.25696C10.3634 6.0343 10.1964 5.87317 9.9679 5.77356C9.7511 5.67981 9.49329 5.63 9.19446 5.62415C8.90149 5.61243 8.46204 5.60657 7.8761 5.60657H7.64758V8.37512H8.06067C8.62317 8.37512 9.01575 8.36926 9.2384 8.35754C9.46692 8.34583 9.70129 8.2843 9.94153 8.17297C10.2052 8.04993 10.3868 7.88 10.4865 7.66321C10.5861 7.44641 10.6359 7.19446 10.6359 6.90735ZM11.462 12.2247C11.462 11.8204 11.38 11.504 11.2159 11.2755C11.0519 11.047 10.8058 10.8741 10.4777 10.757C10.2784 10.6808 10.0031 10.6398 9.65149 10.6339C9.30579 10.6222 8.83997 10.6163 8.25403 10.6163H7.64758V13.8947H7.82336C8.67883 13.8947 9.27063 13.8888 9.59875 13.8771C9.92688 13.8654 10.2609 13.7863 10.6007 13.6398C10.8995 13.5109 11.1163 13.3234 11.2511 13.0773C11.3917 12.8253 11.462 12.5411 11.462 12.2247Z"/>
    </symbol>

    <symbol viewBox="0 0 20 20" id="logo-qiwi">
        <path d="M16.4119 13.4559C16.472 13.8435 16.3451 14.0076 16.2168 14.0076C16.0886 14.0076 15.9029 13.85 15.6958 13.5373C15.4887 13.2245 15.4179 12.8769 15.5181 12.6986C15.5559 12.6368 15.6168 12.5915 15.6882 12.572C15.7596 12.5525 15.836 12.5604 15.9015 12.5939C16.2422 12.718 16.3758 13.2233 16.4119 13.4559ZM14.5242 14.3061C14.9343 14.6408 15.0586 15.0389 14.8422 15.3193C14.7762 15.3977 14.6922 15.46 14.5969 15.5013C14.5015 15.5426 14.3975 15.5617 14.2931 15.557C14.0643 15.5574 13.8425 15.4801 13.6665 15.3386C13.2952 15.0246 13.1856 14.5142 13.4288 14.2247C13.4825 14.1653 13.5495 14.1186 13.6248 14.0881C13.7 14.0577 13.7815 14.0443 13.8629 14.049C14.1077 14.0569 14.3419 14.1479 14.5242 14.3061V14.3061ZM13.8402 17.5367C15.6023 17.5367 17.514 18.1208 19.6314 19.9351C19.8425 20.1161 20.1244 19.8912 19.94 19.6651C17.86 17.1258 15.9323 16.6412 14.0179 16.2329C11.672 15.7315 10.4644 14.4535 9.61872 13.0514C9.45173 12.7723 9.37558 12.8214 9.36089 13.1806C9.34685 13.7131 9.38847 14.2456 9.48513 14.7701V14.7701C9.39028 14.7701 9.29409 14.7701 9.19924 14.7701C7.99705 14.7701 6.82185 14.4252 5.82226 13.7792C4.82267 13.1331 4.04358 12.2148 3.58352 11.1404C3.12346 10.0661 3.00308 8.88385 3.23762 7.7433C3.47216 6.60275 4.05107 5.55509 4.90115 4.7328C5.75124 3.91051 6.83431 3.35053 8.0134 3.12366C9.1925 2.89679 10.4147 3.01322 11.5254 3.45824C12.636 3.90326 13.5854 4.65688 14.2533 5.62379C14.9212 6.5907 15.2777 7.72748 15.2777 8.89037C15.2783 9.11877 15.2653 9.347 15.2389 9.57397C14.5986 9.49597 13.9514 9.48427 13.3085 9.53908C13.0774 9.55846 13.1108 9.6683 13.2845 9.69285C15.2883 10.0431 16.675 11.2435 16.9903 13.4339C16.9914 13.445 16.9962 13.4555 17.0038 13.4638C17.0114 13.4722 17.0216 13.478 17.0329 13.4804C17.0441 13.4828 17.0559 13.4818 17.0665 13.4774C17.077 13.473 17.0859 13.4654 17.0918 13.4559C18.1342 11.7703 18.5706 9.79838 18.3329 7.84774C18.0952 5.89709 17.1968 4.07738 15.7778 2.67245C14.3588 1.26752 12.499 0.356356 10.4885 0.0810911C8.47805 -0.194174 6.4299 0.181935 4.66357 1.15075C2.89723 2.11957 1.51203 3.62662 0.724023 5.43683C-0.063981 7.24704 -0.210478 9.25863 0.307383 11.1578C0.825243 13.057 1.97834 14.737 3.58682 15.9358C5.1953 17.1346 7.16871 17.7848 9.19924 17.7849C10.5418 17.7887 11.8791 17.5355 13.8402 17.5355V17.5367Z" fill="#3E9CDC"/>
    </symbol>

    <symbol viewBox="0 0 20 20" id="file">
        <path d="M17.3839 4.24107L13.9018 0.758929C13.4888 0.345982 12.6629 0 12.0714 0H2.07143C1.47991 0 1 0.479912 1 1.07143V18.9286C1 19.5201 1.47991 20 2.07143 20H17.0714C17.6629 20 18.1429 19.5201 18.1429 18.9286V6.07143C18.1429 5.47991 17.7969 4.65402 17.3839 4.24107ZM12.4286 1.51786C12.6183 1.58482 12.808 1.68527 12.8862 1.76339L16.3795 5.2567C16.4576 5.33482 16.558 5.52455 16.625 5.71429H12.4286V1.51786ZM16.7143 18.5714H2.42857V1.42857H11V6.07143C11 6.66295 11.4799 7.14286 12.0714 7.14286H16.7143V18.5714ZM5.28571 8.92857V9.64286C5.28571 9.84375 5.44196 10 5.64286 10H13.5C13.7009 10 13.8571 9.84375 13.8571 9.64286V8.92857C13.8571 8.72768 13.7009 8.57143 13.5 8.57143H5.64286C5.44196 8.57143 5.28571 8.72768 5.28571 8.92857ZM13.5 11.4286H5.64286C5.44196 11.4286 5.28571 11.5848 5.28571 11.7857V12.5C5.28571 12.7009 5.44196 12.8571 5.64286 12.8571H13.5C13.7009 12.8571 13.8571 12.7009 13.8571 12.5V11.7857C13.8571 11.5848 13.7009 11.4286 13.5 11.4286ZM13.5 14.2857H5.64286C5.44196 14.2857 5.28571 14.442 5.28571 14.6429V15.3571C5.28571 15.558 5.44196 15.7143 5.64286 15.7143H13.5C13.7009 15.7143 13.8571 15.558 13.8571 15.3571V14.6429C13.8571 14.442 13.7009 14.2857 13.5 14.2857Z"/>
    </symbol>
</svg>